<?xml version="1.0" encoding="utf-8"?>
<!-- Generator: Adobe Illustrator 15.0.0, SVG Export Plug-In . SVG Version: 6.00 Build 0)  -->
<!DOCTYPE svg PUBLIC "-//W3C//DTD SVG 1.1//EN" "http://www.w3.org/Graphics/SVG/1.1/DTD/svg11.dtd">
<svg version="1.1" id="Layer_1" xmlns="http://www.w3.org/2000/svg" xmlns:xlink="http://www.w3.org/1999/xlink" x="0px" y="0px"
	 width="595.279px" height="456.285px" viewBox="0 0 595.279 456.285" enable-background="new 0 0 595.279 456.285"
	 xml:space="preserve">
<path fill="#DF4F9C" d="M525.075,151.155c-6.229-51.845-50.537-91.626-103.419-91.626c-17.525,0-34.511,4.321-49.692,12.586
	C343.7,27.381,295.208,0,243.073,0c-67.85,0-127.476,45.876-147.105,112.322C39.987,125.217,0,175.057,0,233.15
	c0,55.062,37.079,103.846,89.292,119.086c0.021,46.486,37.846,84.302,84.331,84.302c23.688,0,45.915-9.844,61.737-26.866
	c23.427,29.473,58.781,46.71,97.003,46.71c48.425,0,92.646-28.68,112.711-72.222c8.565,1.841,17.333,2.771,26.188,2.771
	c68.384,0,124.018-55.635,124.018-124.019C595.28,215.003,567.92,171.772,525.075,151.155z"/>
<path fill="#DF4F9C" d="M471.263,367.089c-9.97,0-19.814-1.403-29.25-4.165c-5-1.474-10.251,1.182-12.082,6.036
	c-15.164,40.422-54.374,67.579-97.567,67.579c-36.004,0-68.974-18.204-88.196-48.695c-1.793-2.849-4.922-4.593-8.293-4.631
	c-0.028,0-0.066,0-0.097,0c-3.333,0-6.443,1.678-8.284,4.457c-11.983,18.176-32.118,29.027-53.869,29.027
	c-35.558,0-64.488-28.93-64.488-64.489c0-2.218,0.106-4.418,0.328-6.578c0.505-5.019-2.828-9.621-7.761-10.687
	c-47.437-10.349-81.859-53.153-81.859-101.791c0-50.595,36.091-93.73,85.812-102.566c3.837-0.678,6.918-3.546,7.877-7.325
	c15.473-60.895,68.732-103.418,129.54-103.418c48.259,0,92.992,27.11,116.739,70.738c1.337,2.471,3.663,4.253,6.386,4.912
	c2.771,0.66,5.609,0.136,7.926-1.462c14.021-9.592,30.452-14.659,47.533-14.659c44.462,0,81.436,34.725,84.167,79.051
	c0.232,3.759,2.566,7.054,6.036,8.526c38.62,16.355,63.577,54.025,63.577,95.968C575.437,320.359,528.708,367.089,471.263,367.089z"
	/>
<path fill="#293349" d="M386.99,138.947l-9.979,0.049l-9.961-0.049c-25.064-0.232-44.907-0.368-57.727,12.344
	c-4.475,4.448-7.495,10.305-9.395,17.372h-24.424c-1.896-7.067-4.918-12.924-9.395-17.372
	c-12.818-12.711-32.661-12.566-57.727-12.344l-9.961,0.049l-9.979-0.049c-26.906-0.252-52.437-0.407-67.385,14.426
	c-7.915,7.848-11.928,19.146-11.928,33.562c0,58.588,22.904,90.861,64.489,90.861c45.411,0,102.802-41.854,104.059-89.292h20.073
	c1.257,47.438,58.646,89.292,104.059,89.292c41.585,0,64.489-32.272,64.489-90.861c0-14.417-4.012-25.714-11.928-33.562
	C439.416,138.54,413.906,138.686,386.99,138.947z"/>
<g>
	<path fill="#83A6E2" d="M173.623,257.954c-29.628,0-44.646-23.894-44.646-71.019c0-9.06,1.985-15.434,6.064-19.484
		c7.828-7.77,24.881-8.71,44.007-8.71c3.043,0,6.134,0.02,9.243,0.049l10.136,0.049l10.114-0.049
		c20.473-0.204,36.652-0.291,43.591,6.589c3.925,3.886,5.822,10.938,5.822,21.558C257.955,223.511,210.45,257.954,173.623,257.954z"
		/>
	<path fill="#83A6E2" d="M401.814,257.954c-36.827,0-84.331-34.443-84.331-71.019c0-10.619,1.898-17.672,5.823-21.558
		c5.909-5.862,18.523-6.636,34.783-6.636c2.827,0,5.773,0.02,8.807,0.049l10.115,0.049l10.135-0.049
		c22.663-0.213,44.172-0.349,53.25,8.662c4.078,4.05,6.065,10.424,6.065,19.484C446.461,234.062,431.442,257.954,401.814,257.954z"
		/>
</g>
<g>
	<path fill="#516693" d="M171.57,171.569l-25.297,25.297c-3.875,3.875-3.875,10.154,0,14.03c1.938,1.938,4.477,2.907,7.015,2.907
		s5.077-0.968,7.015-2.907l25.298-25.297c3.875-3.875,3.875-10.153,0-14.03C181.723,167.694,175.445,167.694,171.57,171.569z"/>
	<path fill="#516693" d="M409.682,171.569l-25.297,25.297c-3.876,3.875-3.876,10.154,0,14.03c1.938,1.938,4.476,2.907,7.014,2.907
		s5.077-0.968,7.015-2.907l25.298-25.297c3.875-3.875,3.875-10.153,0-14.03C419.836,167.694,413.557,167.694,409.682,171.569z"/>
</g>
<rect x="269.839" y="254.154" transform="matrix(-0.1521 0.9884 -0.9884 -0.1521 647.8009 102.8966)" fill="#293349" width="19.845" height="150.35"/>
</svg>
