<svg
   xmlns:dc="http://purl.org/dc/elements/1.1/"
   xmlns:cc="http://creativecommons.org/ns#"
   xmlns:rdf="http://www.w3.org/1999/02/22-rdf-syntax-ns#"
   xmlns:svg="http://www.w3.org/2000/svg"
   xmlns="http://www.w3.org/2000/svg"
   viewBox="0 0 280 368"
   height="368"
   width="280"
   xml:space="preserve"
   id="svg2"
   version="1.1"><metadata
     id="metadata8"><rdf:RDF><cc:Work
         rdf:about=""><dc:format>image/svg+xml</dc:format><dc:type
           rdf:resource="http://purl.org/dc/dcmitype/StillImage" /></cc:Work></rdf:RDF></metadata><defs
     id="defs6"><clipPath
       id="clipPath18"
       clipPathUnits="userSpaceOnUse"><path
         id="path16"
         d="M 0,276 H 210 V 0 H 0 Z" /></clipPath><clipPath
       id="clipPath50"
       clipPathUnits="userSpaceOnUse"><path
         id="path48"
         d="M 105.03,65.721 186.117,138.884 105.03,261.38 Z" /></clipPath><clipPath
       id="clipPath62"
       clipPathUnits="userSpaceOnUse"><path
         id="path60"
         d="m 111.649,143.545 49.856,-49.86 -56.398,-56.397 -56.401,56.397 6.001,6.108 -10.387,9.012 -15.115,-15.12 75.902,-75.903 75.899,75.903 -69.357,68.805 z" /></clipPath></defs><g
     transform="matrix(1.3333333,0,0,-1.3333333,0,368)"
     id="g10"><g
       id="g12"><g
         clip-path="url(#clipPath18)"
         id="g14"><g
           transform="translate(105.2881,67.6982)"
           id="g20"><path
             id="path22"
             style="fill:#212121;fill-opacity:1;fill-rule:nonzero;stroke:none"
             d="m 0,0 c -0.313,1.643 1.405,185.185 0.523,188.809 0,0 -0.342,0.766 -0.131,1.96 -0.267,0.525 -0.432,2.386 -0.65,2.939 L -84.796,70.357 -0.261,-1.96 C -0.185,-1.752 -0.083,-0.206 0,0" /></g><g
           transform="translate(106.2803,79.1621)"
           id="g24"><path
             id="path26"
             style="fill:#ffffff;fill-opacity:1;fill-rule:nonzero;stroke:none"
             d="M 0,0 -70.579,59.111 1.294,97.454 c -0.004,0.813 0.025,1.627 0.082,2.444 L -74.342,59.502 0.07,-2.82 C 0.023,-1.877 0.001,-0.938 0,0" /></g><g
           transform="translate(107.0811,90.9678)"
           id="g28"><path
             id="path30"
             style="fill:#ffffff;fill-opacity:1;fill-rule:nonzero;stroke:none"
             d="m 0,0 -56.484,47.306 56.345,30.059 c 0.061,0.837 0.125,1.673 0.207,2.51 L -60.248,47.696 -0.263,-2.542 C -0.177,-1.694 -0.1,-0.847 0,0" /></g><g
           transform="translate(108.5811,102.1133)"
           id="g32"><path
             id="path34"
             style="fill:#ffffff;fill-opacity:1;fill-rule:nonzero;stroke:none"
             d="M 0,0 C 0.005,0.037 0.011,0.075 0.018,0.113 L -43.023,36.16 -1.876,58.112 c -0.01,0.8 -0.01,1.599 10e-4,2.399 L -46.787,36.551 -0.333,-2.355 C -0.222,-1.57 -0.11,-0.785 0,0" /></g><g
           transform="translate(108.3574,114.9023)"
           id="g36"><path
             id="path38"
             style="fill:#ffffff;fill-opacity:1;fill-rule:nonzero;stroke:none"
             d="m 0,0 -27.902,23.371 26.65,14.218 c -0.07,0.765 -0.137,1.531 -0.189,2.297 L -31.666,23.762 0.702,-3.347 C 0.415,-2.248 0.181,-1.133 0,0" /></g><g
           transform="translate(108.5908,127.2383)"
           id="g40"><path
             id="path42"
             style="fill:#ffffff;fill-opacity:1;fill-rule:nonzero;stroke:none"
             d="m 0,0 -13.177,11.035 12.668,6.758 c -0.127,0.728 -0.229,1.477 -0.34,2.218 L -16.94,11.426 -0.39,-2.436 C -0.286,-1.616 -0.159,-0.803 0,0" /></g></g></g><g
       id="g44"><g
         clip-path="url(#clipPath50)"
         id="g46"><g
           transform="translate(163.0176,283.5947)"
           id="g52"><path
             id="path54"
             style="fill:#dc509c;fill-opacity:1;fill-rule:nonzero;stroke:none"
             d="m 0,0 46.889,-203.095 -119.79,-27.654 -46.886,203.092 z" /></g></g></g><g
       id="g56"><g
         clip-path="url(#clipPath62)"
         id="g58"><g
           transform="translate(54.0137,223.1392)"
           id="g64"><path
             id="path66"
             style="fill:#54c4d3;fill-opacity:1;fill-rule:nonzero;stroke:none"
             d="m 0,0 -80.87,-181.639 182.447,-81.234 80.873,181.644 z" /></g></g></g></g></svg>